# xmcd
#
# Track frame offsets:
# 150
# 24693
# 49389
# 65391
# 80325
# 95257
# 119975
# 141763
# 156709
# 169708
#
# Disc length: 2419 seconds
#
#
# Revision: 0
# Processed by: cddbd v1.5.1PL0 Copyright (c) Steve Scherf et al.
# Submitted via: FreeRIP 2.90 
#
DISCID=8f09710a
DTITLE=PETA ELENH - KSEXASE ME
DYEAR=1900
DGENRE=
TTITLE0=ETSI SE THELW
TTITLE1=KLEISE TA MATIA SOU
TTITLE2=DYNATA
TTITLE3=DEN EXW TIPOTA NA PW
TTITLE4=AS GINOSOUNA GIA LIGO
TTITLE5=KI EGW PROSPATHW
TTITLE6=S AGAPAW FWS MOU
TTITLE7=DEN EMATHES
TTITLE8=KSEXASE ME
TTITLE9=DEN FOVAME
EXTD=
EXTT0=
EXTT1=
EXTT2=
EXTT3=
EXTT4=
EXTT5=
EXTT6=
EXTT7=
EXTT8=
EXTT9=
PLAYORDER=
